<?xml version="1.0" standalone="no"?>
<!DOCTYPE svg PUBLIC "-//W3C//DTD SVG 20010904//EN"
 "http://www.w3.org/TR/2001/REC-SVG-20010904/DTD/svg10.dtd">
<svg version="1.0" xmlns="http://www.w3.org/2000/svg"
 width="457.000000pt" height="457.000000pt" viewBox="0 0 457.000000 457.000000"
 preserveAspectRatio="xMidYMid meet">

<g transform="translate(0.000000,457.000000) scale(0.100000,-0.100000)"
fill="#d71f0a" stroke="none">
<path d="M446 4544 c-190 -46 -353 -203 -413 -399 -16 -54 -18 -100 -18 -469
l0 -410 60 -35 c199 -115 263 -152 480 -278 132 -77 257 -146 279 -153 75 -24
35 -44 776 383 124 71 245 140 270 154 25 14 86 49 135 78 526 307 526 307
585 303 46 -3 71 -14 153 -62 103 -62 119 -83 101 -135 -7 -19 -42 -44 -134
-97 -69 -39 -228 -130 -355 -203 -126 -73 -351 -203 -500 -289 -148 -85 -344
-198 -435 -250 -91 -52 -185 -106 -210 -120 -25 -14 -62 -36 -83 -49 -20 -13
-76 -44 -123 -69 -79 -43 -90 -46 -143 -42 -52 4 -80 17 -327 159 -266 154
-424 246 -496 289 l-38 22 0 -179 c0 -98 4 -183 8 -189 4 -6 65 -45 137 -86
72 -41 229 -132 350 -203 121 -70 244 -141 273 -157 66 -38 128 -40 193 -8 24
13 150 84 279 158 129 75 264 152 300 172 36 20 169 97 295 170 127 74 259
150 295 170 36 20 141 81 234 134 214 124 219 124 360 46 112 -62 131 -84 122
-134 -6 -30 -16 -39 -99 -86 -50 -29 -117 -68 -147 -85 -63 -37 -225 -131
-520 -300 -113 -65 -304 -175 -425 -245 -697 -403 -715 -413 -759 -417 -61 -7
-94 6 -263 104 -81 47 -206 120 -278 161 -71 41 -167 96 -211 122 -45 27 -96
56 -113 64 l-31 17 0 -183 0 -183 28 -16 c231 -134 452 -263 677 -394 82 -48
110 -59 155 -63 70 -5 6 -39 795 418 88 51 214 123 280 160 66 38 172 98 235
135 346 202 362 210 415 210 42 0 64 -9 145 -56 105 -62 130 -91 114 -136 -11
-31 -18 -36 -369 -238 -376 -217 -687 -395 -722 -416 -18 -11 -48 -27 -66 -38
-18 -10 -93 -53 -167 -96 -407 -236 -557 -320 -593 -332 -50 -18 -105 -9 -166
25 -99 54 -211 118 -311 177 -223 132 -438 255 -444 255 -3 0 -6 -179 -6 -397
0 -438 5 -482 59 -596 36 -75 136 -187 208 -233 28 -19 87 -46 130 -61 l78
-28 1790 0 c1914 0 1831 -2 1945 48 140 62 262 196 313 346 l22 66 3 1780 c3
1960 6 1858 -59 1987 -75 150 -211 261 -374 303 -52 13 -266 15 -1840 14
-1500 -1 -1789 -3 -1839 -15z"/>
</g>
</svg>
